<svg xmlns="http://www.w3.org/2000/svg" width="1600" height="1000" viewBox="0 0 1600 1000" role="img" aria-labelledby="title desc">
  <title id="title">Rural Pune medical aid camp</title>
  <desc id="desc">A warm documentary-style rural Indian village scene with healthcare workers helping villagers near a makeshift medical camp in Pune rural area.</desc>

  <defs>
    <linearGradient id="sky" x1="0" y1="0" x2="0" y2="1">
      <stop offset="0%" stop-color="#ffd8a1"/>
      <stop offset="55%" stop-color="#ffe8c6"/>
      <stop offset="100%" stop-color="#fff6ea"/>
    </linearGradient>
    <linearGradient id="ground" x1="0" y1="0" x2="0" y2="1">
      <stop offset="0%" stop-color="#e9c8a2"/>
      <stop offset="100%" stop-color="#d9b287"/>
    </linearGradient>
    <linearGradient id="tent" x1="0" y1="0" x2="1" y2="1">
      <stop offset="0%" stop-color="#fffef8"/>
      <stop offset="100%" stop-color="#f4e7d4"/>
    </linearGradient>
    <linearGradient id="shadow" x1="0" y1="0" x2="1" y2="1">
      <stop offset="0%" stop-color="#7a4d28" stop-opacity="0.28"/>
      <stop offset="100%" stop-color="#7a4d28" stop-opacity="0"/>
    </linearGradient>
    <filter id="softShadow" x="-20%" y="-20%" width="140%" height="140%">
      <feDropShadow dx="0" dy="12" stdDeviation="18" flood-color="#8a5c35" flood-opacity="0.16"/>
    </filter>
  </defs>

  <rect width="1600" height="1000" fill="url(#sky)"/>

  <circle cx="1300" cy="170" r="95" fill="#ffe7ad" opacity="0.65"/>
  <circle cx="1300" cy="170" r="54" fill="#fff4cf" opacity="0.9"/>

  <path d="M0 650 C180 615, 300 688, 470 650 C620 618, 772 585, 940 620 C1110 656, 1230 636, 1600 600 L1600 1000 L0 1000 Z" fill="url(#ground)"/>
  <path d="M0 720 C230 690, 390 748, 580 718 C760 690, 900 735, 1120 702 C1280 680, 1450 694, 1600 665 L1600 1000 L0 1000 Z" fill="#c79f72" opacity="0.75"/>

  <g opacity="0.95">
    <path d="M205 620 C242 582, 330 554, 402 568 C472 582, 517 630, 540 676 L180 676 C190 650, 198 636, 205 620 Z" fill="#b7844f"/>
    <path d="M228 621 C276 593, 338 579, 392 590 C438 599, 474 622, 500 650 L205 650 C212 640, 218 629, 228 621 Z" fill="#7b5b37" opacity="0.55"/>
  </g>

  <g filter="url(#softShadow)">
    <ellipse cx="790" cy="761" rx="176" ry="34" fill="url(#shadow)"/>
    <ellipse cx="1110" cy="772" rx="132" ry="28" fill="url(#shadow)"/>
    <ellipse cx="500" cy="756" rx="108" ry="24" fill="url(#shadow)"/>
  </g>

  <g filter="url(#softShadow)">
    <path d="M610 388 L940 388 L1020 560 L548 560 Z" fill="url(#tent)"/>
    <path d="M610 388 L940 388 L962 428 L588 428 Z" fill="#fffaf3"/>
    <path d="M610 388 L790 388 L830 560 L548 560 Z" fill="#f8efe2" opacity="0.7"/>
    <rect x="683" y="430" width="172" height="122" rx="12" fill="#fff9f2" stroke="#e7d5bd"/>
    <rect x="750" y="452" width="40" height="78" rx="10" fill="#b21f44"/>
    <rect x="730" y="472" width="80" height="38" rx="10" fill="#b21f44"/>
    <circle cx="770" cy="490" r="20" fill="#fff9f2"/>
    <path d="M770 476 v28 M756 490 h28" stroke="#b21f44" stroke-width="8" stroke-linecap="round"/>
  </g>

  <g transform="translate(360 648)">
    <circle cx="0" cy="0" r="24" fill="#efc39d"/>
    <path d="M-28 -6 C-12 -44, 22 -44, 38 -8 C44 8, 40 26, 28 40 C5 54, -20 46, -32 28 C-38 14, -38 0, -28 -6 Z" fill="#714f39"/>
    <path d="M-34 52 C-14 34, 18 34, 34 52 L46 134 L-46 134 Z" fill="#c86156"/>
    <path d="M-38 76 L-68 140" stroke="#714f39" stroke-width="11" stroke-linecap="round"/>
    <path d="M38 76 L70 138" stroke="#714f39" stroke-width="11" stroke-linecap="round"/>
  </g>

  <g transform="translate(512 540)">
    <circle cx="0" cy="0" r="28" fill="#f1c6a1"/>
    <path d="M-30 -8 C-14 -48, 28 -48, 40 -6 C46 10, 42 30, 30 42 C6 56, -20 48, -32 30 C-40 16, -40 2, -30 -8 Z" fill="#8b563b"/>
    <path d="M-36 56 C-20 34, 20 34, 36 56 L54 140 L-54 140 Z" fill="#2f6e88"/>
    <path d="M-44 80 L-82 150" stroke="#8b563b" stroke-width="12" stroke-linecap="round"/>
    <path d="M44 80 L84 148" stroke="#8b563b" stroke-width="12" stroke-linecap="round"/>
  </g>

  <g transform="translate(820 510)">
    <circle cx="0" cy="0" r="26" fill="#efc39d"/>
    <path d="M-28 -8 C-12 -46, 24 -46, 38 -8 C44 8, 40 28, 28 42 C4 54, -20 48, -32 30 C-38 16, -38 2, -28 -8 Z" fill="#6a3f31"/>
    <path d="M-34 54 C-18 34, 18 34, 34 54 L52 140 L-52 140 Z" fill="#1f7b79"/>
    <path d="M-42 76 L-74 144" stroke="#6a3f31" stroke-width="11" stroke-linecap="round"/>
    <path d="M42 76 L78 142" stroke="#6a3f31" stroke-width="11" stroke-linecap="round"/>
  </g>

  <g transform="translate(1118 638)">
    <circle cx="0" cy="0" r="25" fill="#f0c7a4"/>
    <path d="M-30 -8 C-14 -46, 28 -46, 40 -6 C46 8, 42 30, 30 42 C6 54, -20 48, -32 30 C-40 16, -40 2, -30 -8 Z" fill="#7d4e36"/>
    <path d="M-34 54 C-18 34, 18 34, 34 54 L46 136 L-46 136 Z" fill="#e49d53"/>
    <path d="M-42 76 L-68 140" stroke="#7d4e36" stroke-width="11" stroke-linecap="round"/>
    <path d="M42 76 L70 138" stroke="#7d4e36" stroke-width="11" stroke-linecap="round"/>
  </g>

  <g transform="translate(930 588)" filter="url(#softShadow)">
    <rect x="-88" y="30" width="176" height="112" rx="18" fill="#fffaf5" stroke="#e9dac3"/>
    <rect x="-60" y="52" width="48" height="18" rx="9" fill="#f8c4d0"/>
    <rect x="-6" y="52" width="48" height="18" rx="9" fill="#f8c4d0"/>
    <rect x="48" y="52" width="48" height="18" rx="9" fill="#f8c4d0"/>
    <rect x="-28" y="82" width="56" height="18" rx="9" fill="#b21f44"/>
    <rect x="34" y="82" width="32" height="18" rx="9" fill="#f2b24d"/>
  </g>

  <g opacity="0.65">
    <circle cx="145" cy="214" r="6" fill="#fff8ee"/>
    <circle cx="188" cy="248" r="4" fill="#fff8ee"/>
    <circle cx="1392" cy="302" r="5" fill="#fff8ee"/>
    <circle cx="1330" cy="346" r="4" fill="#fff8ee"/>
  </g>
</svg>
